<svg id="visual" viewBox="0 0 900 600" width="900" height="600" xmlns="http://www.w3.org/2000/svg" xmlns:xlink="http://www.w3.org/1999/xlink" version="1.1"><rect x="0" y="0" width="900" height="600" fill="#333646"></rect><defs><linearGradient id="grad1_0" x1="33.3%" y1="0%" x2="100%" y2="100%"><stop offset="20%" stop-color="#333646" stop-opacity="1"></stop><stop offset="80%" stop-color="#333646" stop-opacity="1"></stop></linearGradient></defs><defs><linearGradient id="grad2_0" x1="0%" y1="0%" x2="66.7%" y2="100%"><stop offset="20%" stop-color="#333646" stop-opacity="1"></stop><stop offset="80%" stop-color="#333646" stop-opacity="1"></stop></linearGradient></defs><g transform="translate(900, 0)"><path d="M0 486.7C-44.9 436.5 -89.8 386.2 -153.5 370.5C-217.1 354.8 -299.4 373.7 -344.2 344.2C-389 314.7 -396.4 236.9 -413.9 171.4C-431.4 106 -459.1 53 -486.7 0L0 0Z" fill="#252734"></path></g><g transform="translate(0, 600)"><path d="M0 -486.7C69 -486.2 137.9 -485.6 186.3 -449.7C234.6 -413.8 262.3 -342.5 289.2 -289.2C316.1 -235.9 342.3 -200.6 375.1 -155.4C407.9 -110.2 447.3 -55.1 486.7 0L0 0Z" fill="#252734"></path></g></svg>