<?xml version="1.0" encoding="utf-8"?>
<!-- Generator: Adobe Illustrator 23.1.0, SVG Export Plug-In . SVG Version: 6.00 Build 0)  -->
<svg version="1.1" id="Calque_1" xmlns="http://www.w3.org/2000/svg" xmlns:xlink="http://www.w3.org/1999/xlink" x="0px" y="0px"
	 viewBox="0 0 512 512" style="enable-background:new 0 0 512 512;" xml:space="preserve">
<style type="text/css">
	.st0{fill:#F49097;}
</style>
<path class="st0" d="M299.53,155.82c-15.7-0.22-30.41,3.98-43,11.42c-12.62-7.66-27.44-12.03-43.27-11.92
	c-45.51,0.32-81.92,38.05-81.92,83.56v75.68c0,22.01,17.46,40.46,39.46,40.75c2.81,0.04,5.55-0.22,8.21-0.73
	c14.71-2.86,25.14-16.05,25.14-31.04v-61.25c-9.94,0-16.56-4.72-16.56-14.5v-42.85c0-1.39,0.51-2.59,1.52-3.6
	c1.01-1.01,2.21-1.52,3.6-1.52c1.39,0,2.59,0.51,3.6,1.52c1.02,1.02,1.52,2.22,1.52,3.6v33.32c0,1.39,0.51,2.59,1.52,3.6
	c1.01,1.02,2.21,1.52,3.6,1.52c1.39,0,2.59-0.5,3.6-1.52c1.01-1.01,1.52-2.21,1.52-3.6v-33.32c0-1.39,0.51-2.59,1.52-3.6
	c1.01-1.01,2.21-1.52,3.6-1.52c1.39,0,2.59,0.51,3.6,1.52c1.01,1.02,1.52,2.22,1.52,3.6v33.32c0,1.39,0.51,2.59,1.52,3.6
	c1.01,1.02,2.21,1.52,3.6,1.52c1.39,0,2.59-0.5,3.6-1.52c1.01-1.01,1.52-2.21,1.52-3.6v-33.32c0-1.39,0.51-2.59,1.52-3.6
	c1.01-1.01,2.21-1.52,3.6-1.52c1.39,0,2.59,0.51,3.6,1.52c1.01,1.02,1.52,2.22,1.52,3.6v42.85c0,8.08-4.95,14.5-14.46,14.5v61.82
	c0,16.8,13.08,31.01,29.87,31.67c0.53,0.02,1.06,0.03,1.59,0.03c11.17,0,21.27-4.59,28.53-11.97c2.28-2.24,4.3-4.76,5.99-7.5
	c2.55-4.12,3.83-8.91,3.83-13.75v-30.66h-11.64c-0.69,0-1.3-0.25-1.8-0.76c-0.51-0.51-0.76-1.11-0.76-1.8v-64.08
	c0-7.05,2.51-13.08,7.53-18.1c5.02-5.02,11.05-7.53,18.1-7.53h3.68c1.39,0,2.59,0.51,3.6,1.52c1.01,1.02,1.52,2.22,1.52,3.6v124.47
	c0,14.17,11.1,26.14,25.27,26.54c0.59,0.02,1.18,0.02,1.77,0.01c21.98-0.34,39.38-18.8,39.38-40.78v-75.66
	C380.85,194.08,344.81,156.46,299.53,155.82z"/>
</svg>
